<svg id="Capa_1" enable-background="new 0 0 512 512" viewBox="0 0 512 512" xmlns="http://www.w3.org/2000/svg"><g><path d="m189.995 296.517c3.838 0 7.678-1.465 10.606-4.394l61.298-61.298c9.91-9.909 15.367-23.084 15.367-37.099s-5.457-27.189-15.366-37.099c-9.91-9.91-23.085-15.367-37.1-15.367-12.958 0-25.2 4.666-34.805 13.204-9.605-8.538-21.847-13.204-34.806-13.204-14.014 0-27.189 5.457-37.099 15.367-9.91 9.909-15.367 23.084-15.367 37.099s5.458 27.189 15.367 37.099l61.298 61.298c2.93 2.93 6.768 4.394 10.607 4.394zm-57.271-102.79c0-6.001 2.337-11.643 6.581-15.886 4.243-4.243 9.885-6.58 15.885-6.58 6.001 0 11.643 2.337 15.886 6.58l8.313 8.313c2.813 2.813 6.628 4.394 10.607 4.394 3.978 0 7.793-1.58 10.606-4.394l8.313-8.313c4.243-4.243 9.885-6.58 15.885-6.58 6.001 0 11.643 2.337 15.886 6.58s6.58 9.885 6.58 15.886-2.337 11.643-6.58 15.886l-50.692 50.691-50.691-50.691c-4.242-4.244-6.579-9.885-6.579-15.886z"/><path d="m455.485 156.353h-15v-47.078c0-8.284-6.716-15-15-15s-15 6.716-15 15v47.078h-15c-8.284 0-15 6.716-15 15v102.544c0 8.284 6.716 15 15 15h15v133.881c0 32.655-26.566 59.223-59.222 59.223h-87.045c-27.474 0-50.634-18.808-57.293-44.223h13.071c8.284 0 15-6.716 15-15v-45h52.483c28.12 0 50.997-22.877 50.997-50.996v-275.786c0-28.119-22.877-50.996-50.997-50.996h-194.967c-28.12 0-50.997 22.877-50.997 50.996v275.785c0 28.119 22.877 50.996 50.997 50.996h52.483v45c0 8.284 6.716 15 15 15h16.268c7.154 42.08 43.869 74.223 87.955 74.223h87.045c49.197 0 89.222-40.025 89.222-89.223v-133.881h15c8.284 0 15-6.716 15-15v-102.543c0-8.285-6.716-15-15-15zm-362.973-126.353h194.967c11.578 0 20.997 9.419 20.997 20.996v14.866l-27.508 6.693c-10.561 2.57-21.425 3.874-32.292 3.874-14.877 0-29.563-2.413-43.653-7.172-36.707-12.391-76.843-11.555-113.011 2.352l-20.496 7.881v-28.494c-.001-11.577 9.418-20.996 20.996-20.996zm-20.997 296.781v-215.148l31.263-12.022c29.652-11.402 62.556-12.086 92.646-1.931 17.187 5.806 35.103 8.749 53.25 8.749 13.255 0 26.507-1.59 39.386-4.725l20.414-4.967v230.043c0 11.577-9.419 20.996-20.997 20.996h-194.965c-11.578.001-20.997-9.418-20.997-20.995zm133.48 50.996v30h-30v-30zm235.49-118.881h-30v-72.544h30z"/></g><g/><g/><g/><g/><g/><g/><g/><g/><g/><g/><g/><g/><g/><g/><g/></svg>