<svg version="1.1" id="Capa_1" xmlns="http://www.w3.org/2000/svg" xmlns:xlink="http://www.w3.org/1999/xlink" x="0px" y="0px" viewBox="0 0 512 512" style="enable-background:new 0 0 512 512;" xml:space="preserve" width="300" height="300" xmlns:svgjs="http://svgjs.dev/svgjs"><g transform="matrix(1,0,0,1,0,0)"><g>
	<path style="stroke-linecap: round; stroke-linejoin: round; stroke-miterlimit: 10;" d="&#10;&#9;&#9;M287.479,362.778H92.512c-19.88,0-35.996-16.116-35.996-35.996V50.996C56.515,31.116,72.631,15,92.512,15h194.967&#10;&#9;&#9;c19.88,0,35.996,16.116,35.996,35.996v275.785C323.475,346.662,307.359,362.778,287.479,362.778z" fill="none" stroke="#0041c3ff" data-original-stroke-color="#000000ff" stroke-width="30" data-original-stroke-width="30"/>
	<g>
		<path style="stroke-linecap: round; stroke-linejoin: round; stroke-miterlimit: 10;" d="&#10;&#9;&#9;&#9;M198.309,167.234l-8.313,8.313l-8.313-8.313c-14.631-14.631-38.353-14.631-52.984,0l0,0c-14.631,14.631-14.631,38.353,0,52.985&#10;&#9;&#9;&#9;l61.298,61.298l61.298-61.298c14.631-14.631,14.631-38.353,0-52.985l0,0C236.662,152.603,212.94,152.603,198.309,167.234z" fill="none" stroke="#0041c3ff" data-original-stroke-color="#000000ff" stroke-width="30" data-original-stroke-width="30"/>
	</g>
	<path style="stroke-linecap: round; stroke-linejoin: round; stroke-miterlimit: 10;" d="&#10;&#9;&#9;M56.515,101.33l40.88-15.72c32.98-12.68,69.35-13.44,102.83-2.14c15.69,5.3,32.06,7.96,48.45,7.96c12.02,0,24.05-1.43,35.84-4.3&#10;&#9;&#9;l38.96-9.48" fill="none" stroke="#0041c3ff" data-original-stroke-color="#000000ff" stroke-width="30" data-original-stroke-width="30"/>
	
		<rect x="395.485" y="171.352" style="stroke-linecap: round; stroke-linejoin: round; stroke-miterlimit: 10;" width="60" height="102.544" fill="none" stroke="#0041c3ff" data-original-stroke-color="#000000ff" stroke-width="30" data-original-stroke-width="30"/>
	
		<rect x="159.995" y="362.778" style="stroke-linecap: round; stroke-linejoin: round; stroke-miterlimit: 10;" width="60" height="60" fill="none" stroke="#0041c3ff" data-original-stroke-color="#000000ff" stroke-width="30" data-original-stroke-width="30"/>
	<path style="stroke-linecap: round; stroke-linejoin: round; stroke-miterlimit: 10;" d="&#10;&#9;&#9;M189.995,422.778L189.995,422.778c0,40.992,33.23,74.222,74.222,74.222h87.045c40.992,0,74.222-33.23,74.222-74.222V273.896" fill="none" stroke="#0041c3ff" data-original-stroke-color="#000000ff" stroke-width="30" data-original-stroke-width="30"/>
	
		<line style="stroke-linecap: round; stroke-linejoin: round; stroke-miterlimit: 10;" x1="425.485" y1="171.352" x2="425.485" y2="109.275" fill="none" stroke="#0041c3ff" data-original-stroke-color="#000000ff" stroke-width="30" data-original-stroke-width="30"/>
</g><g>
</g><g>
</g><g>
</g><g>
</g><g>
</g><g>
</g><g>
</g><g>
</g><g>
</g><g>
</g><g>
</g><g>
</g><g>
</g><g>
</g><g>
</g></g></svg>