<svg id="Layer_2" enable-background="new 0 0 512 512" viewBox="0 0 512 512" xmlns="http://www.w3.org/2000/svg"><g><g><g><g style="fill:none;stroke:#474747;stroke-linecap:round;stroke-linejoin:round;stroke-miterlimit:10;stroke-width:15"><path d="m77.603 323.603-14.348 4.192c-14.857 4.34-26.1 16.536-29.219 31.697l-15.013 107.334"/><path d="m157.564 251.347-5.943 50.633-44.527 13.008"/></g></g><g><g style="fill:none;stroke:#474747;stroke-linecap:round;stroke-linejoin:round;stroke-miterlimit:10;stroke-width:15"><path d="m319.369 324.796 10.267 3c14.857 4.34 26.1 16.536 29.219 31.697l15.012 107.334"/><path d="m235.327 251.347 5.944 50.633 48.625 14.205"/></g></g><g style="fill:none;stroke:#474747;stroke-linecap:round;stroke-linejoin:round;stroke-miterlimit:10;stroke-width:15"><path d="m268.042 166.554-5.218 52.954c-.567 10.504-6.483 19.847-15.439 24.385l-35.958 18.622c-8.962 4.284-19.381 4.284-28.343 0l-35.958-18.622c-8.956-4.537-14.872-13.881-15.439-24.385l-9.909-100.624c-1.615-53.646 40.936-55.662 40.936-55.662 24.715-32.83 63.924-20.61 63.924-20.61 44.296 7.876 84.755-2.226 84.755-2.226 9.829 109.636-78.416 119.672-131.362 85.412"/><path d="m151.621 301.98 43.944 89.895 44.823-92.371"/><path d="m157.564 138.629-28.725 33.448"/><path d="m245.995 449.703-14.799-4.429 10.694-53.623c4.333-21.728 25.459-35.829 47.187-31.496 21.728 4.333 35.829 25.459 31.496 47.187l-10.694 53.623-13.635-1.018"/><circle cx="115.944" cy="433.352" r="20.837"/><path d="m112.196 412.859-7.789-79.411c-2.406-24.527 13.073-47.265 36.774-54.019l13.062-3.723"/><path d="m289.077 360.155 2.64-26.707c2.406-24.527-13.073-47.265-36.774-54.019l-13.062-3.723"/></g></g><g><g fill="#474747"><circle cx="335.458" cy="149.261" r="9.867"/><circle cx="377.828" cy="149.841" r="9.867"/><circle cx="420.197" cy="150.422" r="9.867"/></g><path d="m348.564 67.862h90.951c27.355 0 49.53 22.175 49.53 49.53v55.137c0 27.355-22.175 49.53-49.53 49.53h-79.382l-37.983 29.287v-29.286h-30.611" style="fill:none;stroke:#474747;stroke-linecap:round;stroke-linejoin:round;stroke-miterlimit:10;stroke-width:15"/></g></g></svg>