<svg xmlns="http://www.w3.org/2000/svg" version="1.1" xmlns:xlink="http://www.w3.org/1999/xlink" width="512" height="512" x="0" y="0" viewBox="0 0 512 512" style="enable-background:new 0 0 512 512" xml:space="preserve" class=""><g><path d="M256 0C114.848 0 0 114.848 0 256s114.848 256 256 256 256-114.848 256-256S397.152 0 256 0zm0 480C132.512 480 32 379.52 32 256S132.512 32 256 32s224 100.48 224 224-100.512 224-224 224z" fill="#1f50af" opacity="1" data-original="#000000" class=""></path><path d="M336 192h-17.632c-2.4-11.904-7.712-22.656-14.784-32H336c8.832 0 16-7.168 16-16s-7.168-16-16-16H176c-8.832 0-16 7.168-16 16s7.168 16 16 16h64c20.832 0 38.432 13.408 45.056 32H176c-8.832 0-16 7.168-16 16s7.168 16 16 16h109.056c-6.624 18.592-24.224 32-45.056 32h-64c-2.08 0-4.16.416-6.112 1.216a16.101 16.101 0 0 0-8.672 8.672 15.872 15.872 0 0 0 0 12.224 15.251 15.251 0 0 0 3.488 5.216l127.968 127.968C295.808 414.432 299.904 416 304 416s8.192-1.568 11.328-4.672c6.24-6.24 6.24-16.384 0-22.624L214.624 288H240c38.656 0 70.944-27.52 78.368-64H336c8.832 0 16-7.168 16-16s-7.168-16-16-16z" fill="#1f50af" opacity="1" data-original="#000000" class=""></path></g></svg>