<svg xmlns="http://www.w3.org/2000/svg" version="1.1" xmlns:xlink="http://www.w3.org/1999/xlink" width="512" height="512" x="0" y="0" viewBox="0 0 500 500" style="enable-background:new 0 0 512 512" xml:space="preserve"><g><path fill-rule="evenodd" d="M131.228 38.864a6.824 6.824 0 0 1 6.821-6.821c16.072 0 30.186 8.474 38.147 21.188 7.944-12.714 22.063-21.188 38.13-21.188a6.819 6.819 0 1 1 0 13.636c-17.27 0-31.309 14.056-31.309 31.315a6.823 6.823 0 0 1-6.821 6.82 6.817 6.817 0 0 1-6.826-6.82c0-17.259-14.051-31.315-31.321-31.315-3.762 0-6.821-3.053-6.821-6.815zm113.048 82.453c7.95-12.708 22.063-21.193 38.136-21.193a6.823 6.823 0 0 1 6.82 6.821 6.816 6.816 0 0 1-6.82 6.82c-17.27 0-31.315 14.051-31.315 31.327a6.824 6.824 0 0 1-6.82 6.821 6.824 6.824 0 0 1-6.821-6.821c0-17.276-14.05-31.327-31.315-31.327a6.813 6.813 0 0 1-6.821-6.82 6.82 6.82 0 0 1 6.821-6.821c16.06-.001 30.185 8.484 38.135 21.193zm62.526 284.111-19.218-.011c8.197-11.302 7.443-27.219-2.518-37.675l-39.115-41.068a6.8 6.8 0 0 0-3.341-1.924l-33.769-8.169v-18.307c2.448.17 11.891 1.074 13.699.68l42.79-9.13a23.316 23.316 0 0 0 4.776-1.567l42.111 111.734zm-93.703-.064 26.292.018-25.572-26.845-23.112-5.225 3.364 25.312a6.763 6.763 0 0 1-.282 3.03l-12.887 39.201 26.903-32.98a6.816 6.816 0 0 1 5.294-2.511zm-85.984-51.684c0 1.216-1.037 2.258-2.264 2.258H102.16c-1.215 0-2.252-1.043-2.252-2.258v-11.331h27.208v11.331zm-13.601-106.654c7.501 0 13.601 6.101 13.601 13.601v68.08H99.907v-68.08c0-7.5 6.101-13.601 13.607-13.601zm53.667-79.18c15.006 0 27.219 12.213 27.219 27.219 0 15.012-12.213 27.231-27.219 27.231-15.007 0-27.219-12.219-27.219-27.231-.001-15.007 12.212-27.219 27.219-27.219zm13.168 231.026-16.781 51.005c-4.394 13.358-22.837 14.81-29.224 2.189-1.918-3.802-2.252-8.105-.933-12.103l12.593-38.309a6.695 6.695 0 0 0 .311-2.8l-3.716-37.94c6.642 2.316 17.34 5.179 33.902 9.108zm46.483-136.787-39.098-18.123a6.595 6.595 0 0 1-1.676-1.106 27.112 27.112 0 0 0-18.077-6.919c-15.018 0-27.225 12.207-27.225 27.219v78.91c.374 2.535 1.221 3.601 2.039 4.274 5.859 3.629 48.349 13.123 64.381 16.706 5.26 1.181 9.424 2.108 11.792 2.685a6.842 6.842 0 0 1 3.336 1.924l29.892 31.39c6.032 6.337 16.101 6.584 22.438.547 6.322-6.012 6.568-16.123.553-22.438l-37.733-39.622-37.035-8.946a6.824 6.824 0 0 1-5.219-6.63v-24.863l-18.509-1.993c-3.744-.409-6.458-3.768-6.054-7.512.409-3.75 3.744-6.469 7.512-6.055l24.466 2.633 18.025 1.244 41.846-8.929c2.621-.553 4.862-2.108 6.337-4.384 4.906-7.551-1.849-17.171-10.536-15.324l-27.162 5.795a6.874 6.874 0 0 1-4.293-.483zm224.932 7.247c-2.662-2.656-6.982-2.644-9.638.029l-57.013 57.324-.063-109.303 33.902 34.674c2.639 2.69 6.959 2.742 9.649.104a6.815 6.815 0 0 0 .109-9.638l-43.672-44.657-.04-64.946 33.953 34.726c2.627 2.685 6.968 2.73 9.649.11 2.69-2.638 2.742-6.959.109-9.649l-43.718-44.703-.035-64.946 33.994 34.771c2.634 2.687 6.958 2.74 9.649.11 2.69-2.638 2.742-6.959.109-9.655l-45.711-46.731c-.766-1.085-3.415-2.233-5.565-2.016-1.635.165-3.059.881-4.182 2.016l-45.705 46.731a6.82 6.82 0 0 0 .115 9.655c2.69 2.627 7.011 2.581 9.638-.11l34.017-34.789.035 64.865-43.804 44.801a6.814 6.814 0 0 0 .115 9.649c2.69 2.627 7.011 2.581 9.638-.11l34.057-34.835.04 64.865-43.85 44.847c-4.24 4.335-1.106 11.585 4.874 11.585a6.77 6.77 0 0 0 4.879-2.051l34.103-34.881.075 123.215-48.695 48.966-41.817-110.974c7.394-12.913 1.236-29.261-12.881-34.178l-11.66-30.923a6.82 6.82 0 0 0-12.76 4.81l9.713 25.779-22.87 4.88-36.16-16.758a42.123 42.123 0 0 0-4.211-3.128c10.801-7.368 17.904-19.765 17.904-33.798 0-22.53-18.325-40.866-40.86-40.866-22.536 0-40.866 18.336-40.866 40.866 0 14.367 7.46 27.018 18.699 34.305a41.375 41.375 0 0 0-11.85 12.414c-4.966-5.173-11.942-8.405-19.65-8.405-15.03 0-27.248 12.224-27.248 27.248v93.052c0 8.768 7.126 15.894 15.894 15.894h22.691c1.676 0 3.295-.259 4.81-.743l2.938 29.933-12.149 36.932c-2.829 8.605-1.485 18.091 3.548 25.641l-70.989.115c-3.762 0-6.809 3.065-6.803 6.832a6.813 6.813 0 0 0 6.832 6.809l114.459-.19a6.794 6.794 0 0 0 5.277-2.506l43.556-53.39 93.312.063a6.81 6.81 0 0 0 4.839-2.01l137.311-138.078c2.675-2.673 2.675-6.994-.027-9.649z" clip-rule="evenodd" fill="#7c89a9" opacity="1" data-original="#000000"></path></g></svg>