<svg xmlns="http://www.w3.org/2000/svg" version="1.1" xmlns:xlink="http://www.w3.org/1999/xlink" width="512" height="512" x="0" y="0" viewBox="0 0 900 900" style="enable-background:new 0 0 512 512" xml:space="preserve" class=""><g><g data-name="5-ฺBaby"><path d="M731 398.7a.47.47 0 0 1-.1-.1L674 349.38a57.84 57.84 0 0 1-12.31-15.14c-26.1-46.18-59.69-85.84-99.93-117.88a.18.18 0 0 1-.07-.05l-.08-.06A69.74 69.74 0 0 0 457.86 237a221.28 221.28 0 0 0-89.56 32.34c-20.42 13-26.83 39.27-14.6 59.79a44 44 0 0 0 37.82 21.37 43.51 43.51 0 0 0 21.2-5.5c.42-.23.84-.45 1.24-.71 22.71-14.42 49.22-17.19 71.83-8.11-26.83 68-84.21 118.9-155.9 137.57a108.41 108.41 0 0 0-62.68 165.37 281.42 281.42 0 0 1 48 150.56 34.88 34.88 0 0 0 34.66 33.85h111.52a34.68 34.68 0 0 0 34.61-37.1c-.73-10.42-1.58-21.61-2.87-32.87a462.09 462.09 0 0 0-70.7-205.36A352.62 352.62 0 0 0 547 430.36a170.25 170.25 0 0 1 .94 70.32.19.19 0 0 0 0 .08v.06c-2 10.56 1.23 21.21 9 30a50.82 50.82 0 0 0 37 16.56c.84 0 1.68 0 2.52-.07a46.2 46.2 0 0 0 43.49-47.58v-.42l-3.5-60.08 32.14 30 .24.21A47.11 47.11 0 1 0 731 398.7zM394.21 527l-.12.06a18.22 18.22 0 0 0-9.21 11.58 18.45 18.45 0 0 0 2.59 14.68 430.36 430.36 0 0 1 73.78 203.36v.18a1.09 1.09 0 0 0 0 .18c1.23 10.66 2 21.47 2.74 31.55a2.65 2.65 0 0 1-2.66 2.85H349.84a2.66 2.66 0 0 1-2.67-2.6 313.44 313.44 0 0 0-53.4-167.66A76.43 76.43 0 0 1 338 504.68a261.4 261.4 0 0 0 182.83-171.33s0 0 0-.05a17 17 0 1 1 32.23 10.57C526.17 423.66 469.75 488.72 394.21 527zM715 437.23a15.11 15.11 0 0 1-24.87 8.43l-57.39-53.56a18.07 18.07 0 0 0-30.29 14.33l5.49 94.43a14.12 14.12 0 0 1-13.36 14.56 18.64 18.64 0 0 1-13.67-5.71c-1-1.18-1.63-2.35-1.51-3a201 201 0 0 0-11.11-114.92A351.33 351.33 0 0 0 583.41 354a48.93 48.93 0 0 0-84-46.84c-32.3-13.68-70.06-10.34-102.1 9.8a11.92 11.92 0 0 1-16.19-4.19c-3.31-5.55-1.43-12.74 4.28-16.39A188.18 188.18 0 0 1 468.52 268c.55-.05 1.08-.13 1.61-.22A18 18 0 0 0 483.56 257a37.84 37.84 0 0 1 58.36-15.54c36.94 29.45 67.85 66 91.85 108.49a89.81 89.81 0 0 0 19.1 23.49l56.95 49.27a15.12 15.12 0 0 1 5.18 14.52z" fill="#596b93" opacity="1" data-original="#000000" class=""></path><path d="M299.15 401.26A75.15 75.15 0 1 0 224 476.4a75.23 75.23 0 0 0 75.15-75.14zM224 444.4a43.15 43.15 0 1 1 43.15-43.14A43.19 43.19 0 0 1 224 444.4zM441.57 204a64.17 64.17 0 1 0-64.17-64.17A64.25 64.25 0 0 0 441.57 204zm0-96.34a32.17 32.17 0 1 1-32.17 32.17 32.2 32.2 0 0 1 32.17-32.19z" fill="#596b93" opacity="1" data-original="#000000" class=""></path></g></g></svg>