<svg xmlns="http://www.w3.org/2000/svg" version="1.1" xmlns:xlink="http://www.w3.org/1999/xlink" width="512" height="512" x="0" y="0" viewBox="0 0 24 24" style="enable-background:new 0 0 512 512" xml:space="preserve" class=""><g><path d="M11 24C4.935 24 0 19.065 0 13S4.935 2 11 2c2.109 0 4.161.601 5.934 1.739a.751.751 0 0 1-.811 1.263A9.46 9.46 0 0 0 11 3.5c-5.238 0-9.5 4.262-9.5 9.5s4.262 9.5 9.5 9.5 9.5-4.262 9.5-9.5a9.81 9.81 0 0 0-.044-.928.75.75 0 1 1 1.493-.145c.034.353.051.711.051 1.073 0 6.065-4.935 11-11 11z" fill="#1f50af" opacity="1" data-original="#000000" class=""></path><path d="M12.25 15.5a.744.744 0 0 1-.53-.22l-4.5-4.5a.75.75 0 1 1 1.061-1.061l3.97 3.97L22.72 3.22a.75.75 0 1 1 1.061 1.061l-11 11a.751.751 0 0 1-.531.219z" fill="#1f50af" opacity="1" data-original="#000000" class=""></path></g></svg>