<svg xmlns="http://www.w3.org/2000/svg" version="1.1" xmlns:xlink="http://www.w3.org/1999/xlink" width="512" height="512" x="0" y="0" viewBox="0 0 16.933 16.933" style="enable-background:new 0 0 512 512" xml:space="preserve" class=""><g><path d="M9.525 3.704A3.179 3.179 0 0 0 6.35.529a3.179 3.179 0 0 0-3.166 3.444c.015.36.557.326.528-.033a3.838 3.838 0 0 1-.008-.236 2.642 2.642 0 0 1 2.645-2.646 2.642 2.642 0 0 1 2.646 2.646c0 .327-.044.684-.129 1.054a.96.96 0 0 0-.136.025v-.285a.265.265 0 0 0-.263-.266h-.53c-.598 0-.808-.611-.808-.611a.264.264 0 0 0-.502 0s-.211.61-.807.61H4.232a.265.265 0 0 0-.263.267v.283c-.53-.129-1.059.242-1.059.77 0 .774.545 1.259 1.192 1.32.134.385.364.723.66.989v1.4c0 .029.005.057.014.084.246.608.826.975 1.575.975.748 0 1.33-.369 1.574-.975a.265.265 0 0 0 .014-.083v-1.4c.296-.265.527-.603.66-.988.612-.062 1.19-.53 1.19-1.322a.806.806 0 0 0-.406-.675c.091-.4.142-.797.142-1.172zm2.116-1.852v.264h-.263a.8.8 0 0 0-.795.795v1.851a2.909 2.909 0 0 0 2.646 2.897v3.719a.785.785 0 0 1-.793.792h-.279a3.436 3.436 0 0 0-3.426-3.175c-.357-.005-.357.535 0 .53a2.896 2.896 0 0 1 2.897 2.645h-2.67a1.058 1.058 0 0 0-1.02-.792c-.58 0-1.058.475-1.058 1.056s.477 1.059 1.059 1.059c.489 0 .9-.34 1.018-.793h3.48c.728 0 1.322-.594 1.322-1.322V7.659a2.91 2.91 0 0 0 2.646-2.897v-1.85a.8.8 0 0 0-.795-.796h-.264v-.264c0-.36-.529-.358-.529 0v1.06c.008.344.522.344.53 0v-.267h.263a.26.26 0 0 1 .266.266v1.851a2.372 2.372 0 0 1-2.383 2.381 2.37 2.37 0 0 1-2.381-2.38V2.91a.26.26 0 0 1 .266-.266h.263v.266c0 .353.53.353.53 0V1.852c0-.35-.53-.363-.53 0zM6.88 4.235c.168.226.507.526 1.058.526h.264v1.325c0 1.03-.821 1.851-1.852 1.851-1.03 0-1.852-.82-1.852-1.851V4.76h1.323c.551 0 .869-.288 1.059-.526zm1.84 2.076c.02-.307.01-.618.01-.936.198-.203.53-.029.528.187-.002.398-.242.662-.538.749zm-4.74 0a.75.75 0 0 1-.538-.749c0-.261.37-.364.527-.188-.002.305-.004.647.012.937zm1.312 1.908a2.381 2.381 0 0 0 2.117 0v.977s-.22.594-1.058.594c-.839 0-1.06-.594-1.06-.594zm-1.323.776a3.438 3.438 0 0 0-3.44 3.44v3.704c0 .146.119.265.265.265h11.112a.265.265 0 0 0 .265-.265v-2.646c.005-.357-.534-.357-.53 0v.795H10.32v-.795c0-.375-.529-.345-.529 0v2.382H2.91v-2.382c0-.357-.528-.358-.528 0v.795H1.058v-1.853a2.898 2.898 0 0 1 2.91-2.91c.358.005.358-.534 0-.53zm3.97 2.91c.295 0 .529.234.529.529 0 .295-.234.53-.53.53a.526.526 0 0 1-.53-.53c0-.295.235-.53.53-.53zm-6.88 2.912h1.323v1.058H1.058zm9.26 0h1.323v1.058h-1.323z" fill="#596b93" opacity="1" data-original="#000000"></path></g></svg>