<svg xmlns="http://www.w3.org/2000/svg" version="1.1" xmlns:xlink="http://www.w3.org/1999/xlink" width="512" height="512" x="0" y="0" viewBox="0 0 24 24" style="enable-background:new 0 0 512 512" xml:space="preserve" class=""><g><path d="M13.006 6c-1.654 0-3-1.346-3-3s1.346-3 3-3 3 1.346 3 3-1.346 3-3 3zm0-5c-1.103 0-2 .897-2 2s.897 2 2 2 2-.897 2-2-.897-2-2-2zM6.506 24a.5.5 0 0 1-.5-.5v-9a.5.5 0 0 1 1 0v9a.5.5 0 0 1-.5.5z" fill="#596b93" opacity="1" data-original="#000000"></path><path d="M16.497 24a.5.5 0 0 1-.5-.5v-1.486a5.48 5.48 0 0 1 .924-3.051l.32-.48a4.45 4.45 0 0 0 .758-2.561c-.071-3.8-.759-6.19-2.166-7.521A1.486 1.486 0 0 0 14.801 8h-1.164a3.495 3.495 0 0 0-2.912 1.559l-.518.777a2.505 2.505 0 0 1-.961.849l-2.893 1.45a.627.627 0 0 0-.348.563c0 .186.077.354.217.476s.318.175.501.147l1.607-.23c.292-.042.563-.167.783-.362l2.228-1.976a.998.998 0 0 1 1.665.747v11.5a.5.5 0 0 1-1 0V12l-2.228 1.976a2.5 2.5 0 0 1-1.304.604l-1.608.23a1.631 1.631 0 0 1-1.861-1.613c0-.621.345-1.179.9-1.457l2.893-1.45c.233-.117.432-.292.577-.509l.518-.777A4.493 4.493 0 0 1 13.638 7h1.164c.65 0 1.26.239 1.719.674 1.614 1.528 2.402 4.143 2.479 8.228a5.445 5.445 0 0 1-.926 3.135l-.32.48a4.483 4.483 0 0 0-.756 2.496V23.5a.502.502 0 0 1-.501.5z" fill="#596b93" opacity="1" data-original="#000000"></path></g></svg>