<svg xmlns="http://www.w3.org/2000/svg" version="1.1" xmlns:xlink="http://www.w3.org/1999/xlink" width="512" height="512" x="0" y="0" viewBox="0 0 476.847 476" style="enable-background:new 0 0 512 512" xml:space="preserve" class=""><g><path d="M412.848 128.422c35.343 0 64-28.652 64-64 0-35.344-28.657-64-64-64-35.348 0-64 28.656-64 64 .039 35.332 28.668 63.96 64 64zm0-112c26.507 0 48 21.492 48 48 0 26.512-21.493 48-48 48-26.512 0-48-21.488-48-48 .023-26.496 21.5-47.973 48-48zM139.703 187.734a35.196 35.196 0 0 0 24.961-10.32l72.184-72.191 48.183 48.183c13.781 13.781 36.121 13.781 49.903 0l.05-.047c13.743-13.789 13.743-36.097 0-49.886l-69.859-69.84c-15.617-15.617-40.938-15.617-56.559 0l-93.855 93.847a35.308 35.308 0 0 0 24.992 60.254zm-13.68-48.91 93.856-93.883c9.371-9.367 24.562-9.367 33.937 0l69.856 69.883c7.508 7.535 7.508 19.727 0 27.262l-.05.05c-7.54 7.516-19.74 7.516-27.278 0l-53.84-53.847a7.997 7.997 0 0 0-11.313 0l-77.847 77.813c-7.645 7.316-19.703 7.296-27.32-.047-7.489-7.532-7.489-19.7 0-27.23zM444.848 208.422h-80v-40a7.994 7.994 0 0 0-4.942-7.387 7.998 7.998 0 0 0-8.715 1.73l-48 48a8.001 8.001 0 0 0-2.343 5.657v32c0 13.258 10.742 24 24 24h120c17.672 0 32-14.324 32-32 0-17.672-14.328-32-32-32zm0 48h-120a8 8 0 0 1-8-8v-28.688l32-32v28.688a8 8 0 0 0 8 8h88c8.836 0 16 7.164 16 16 0 8.84-7.164 16-16 16zM202.672 313.223l-38.625-38.625c-3.176-3-8.14-3-11.313 0L10.336 417c-13.781 13.777-13.781 36.117 0 49.895v.039c13.785 13.761 36.11 13.761 49.894 0L202.63 324.535a8 8 0 0 0 .043-11.312zM48.942 455.625c-7.532 7.516-19.731 7.516-27.262 0h-.032c-7.535-7.527-7.535-19.738 0-27.266l136.735-136.793 27.312 27.32zm0 0" fill="#596b93" opacity="1" data-original="#000000"></path><path d="M244.3 229.926a35.335 35.335 0 0 0-34.316-9.559 35.333 35.333 0 0 0-25.195 25.192 35.325 35.325 0 0 0 9.555 34.32l62.504 62.488-75.793 40.39c-16.856 9.63-22.739 31.087-13.145 47.962l1.137 2.097a35.49 35.49 0 0 0 30.734 17.727 34.591 34.591 0 0 0 17.266-4.59l98.672-53.066 12.8-7.352a40.006 40.006 0 0 0 19.766-29.422 40.011 40.011 0 0 0-11.367-33.57zm88.122 124.097a23.82 23.82 0 0 1-11.848 17.602L209.27 431.961c-9.184 5.262-20.895 2.164-26.27-6.953l-1.145-2.098c-5.238-9.14-2.16-20.793 6.91-26.152l85.13-45.352a7.999 7.999 0 0 0 1.887-12.719l-70.134-70.12c-7.55-7.551-7.55-19.794 0-27.344 7.551-7.551 19.793-7.551 27.344 0l92.656 92.632a23.798 23.798 0 0 1 6.774 20.168zm0 0" fill="#596b93" opacity="1" data-original="#000000"></path></g></svg>