<svg id="Capa_1" enable-background="new 0 0 512 512" height="300" viewBox="0 0 512 512" width="300" xmlns="http://www.w3.org/2000/svg" version="1.1" xmlns:xlink="http://www.w3.org/1999/xlink" xmlns:svgjs="http://svgjs.dev/svgjs"><g transform="matrix(1,0,0,1,0,0)"><g><path d="m238.471 183.01c-7.174-4.143-16.349-1.686-20.491 5.489-5.76 9.978-20.193 9.988-25.959 0-4.142-7.174-13.317-9.632-20.491-5.489s-9.632 13.316-5.489 20.491c17.283 29.93 60.621 29.958 77.92 0 4.142-7.174 1.684-16.348-5.49-20.491z" fill="#1f50afff" data-original-color="#000000ff" stroke="none"/><path d="m422 30h-62c-17.839 0-34.451 5.344-48.329 14.507-8.605-25.827-32.99-44.507-61.671-44.507h-90c-35.841 0-65 29.159-65 65v26h-15c-24.813 0-45 20.187-45 45s20.187 45 45 45h15.119c1.641 36.492 21.144 68.408 49.957 87.199v35.989l-95.319 22.996c-29.297 7.068-49.757 33.052-49.757 63.188v106.628c0 8.284 6.716 15 15 15h380c8.284 0 15-6.716 15-15v-106.638c0-30.129-20.454-56.111-49.741-63.184l-95.184-22.987v-36.091c24.595-16.098 42.379-41.771 48.017-71.683 8.282 5.242 17.495 9.143 27.332 11.387l-8.774 28.828c-3.997 13.134 10.375 24.308 22.117 17.2l72.592-43.937c47.611-2.279 85.641-41.729 85.641-89.895 0-49.626-40.374-90-90-90zm-327 121h-15c-8.271 0-15-6.729-15-15s6.729-15 15-15h15zm-65 331v-91.628c0-16.227 11.017-30.218 26.791-34.024l34.209-8.253v47.485c-17.459 6.192-30 22.865-30 42.42 0 21.582 15.274 39.656 35.579 44zm61-44c0-8.271 6.729-15 15-15s15 6.729 15 15-6.729 15-15 15-15-6.729-15-15zm99 44h-74.579c20.305-4.344 35.579-22.418 35.579-44 0-19.555-12.541-36.228-30-42.42v-54.723l35.316-8.52 33.684 27.742zm-14.925-173.079v-27.06c19.54 5.531 40.459 5.521 60-.041v27.013l-30.07 24.738zm137.925 37.707 40.216 9.712c15.77 3.808 26.784 17.799 26.784 34.022v91.638h-34v-43.025c0-21.225-13.86-39.263-33-45.569zm-14.975 74.372c9.911 0 17.975 8.063 17.975 17.975v43.025h-35.95v-43.025c0-9.912 8.063-17.975 17.975-17.975zm-15.025-81.617v54.04c-19.115 6.321-32.95 24.346-32.95 45.552v43.025h-30.05v-121.916l33.749-27.765zm2-163.383c0 44.112-35.888 80-80 80s-80-35.888-80-80v-41.578c18.118-3.85 33.996-14.554 44.357-29.762 26.989 23.536 68.171 30.847 103.937 32.119 1.905 11.25 5.95 21.78 11.706 31.154zm0-103.94c-6.353 10.345-10.63 22.096-12.238 34.671-39.806-1.657-62.659-10.697-75.098-18.399-12.929-8.006-16.875-15.745-17.516-17.162-3.692-13.41-23.481-14.734-28.432.146-1.235 2.227-4.338 23.328-26.717 31.908v-38.224c0-19.299 15.701-35 35-35h90c19.299 0 35 15.701 35 35v7.06zm137 107.94c-7.292 0-7.497 2.792-50.239 27.874l2.589-8.506c2.93-9.627-4.283-19.368-14.35-19.368-31.954 0-57.95-28.046-57.95-60s25.996-60 57.95-60h62c33.084 0 60 26.916 60 60s-26.916 60-60 60z" fill="#1f50afff" data-original-color="#000000ff" stroke="none"/><circle cx="346" cy="121" r="15" fill="#1f50afff" data-original-color="#000000ff" stroke="none"/><circle cx="392" cy="121" r="15" fill="#1f50afff" data-original-color="#000000ff" stroke="none"/><circle cx="436" cy="121" r="15" fill="#1f50afff" data-original-color="#000000ff" stroke="none"/></g></g></svg>