<svg xmlns="http://www.w3.org/2000/svg" version="1.1" xmlns:xlink="http://www.w3.org/1999/xlink" width="512" height="512" x="0" y="0" viewBox="0 0 64 64" style="enable-background:new 0 0 512 512" xml:space="preserve"><g><path d="M32 2C15.5 2 2 15.5 2 32s13.5 30 30 30 30-13.5 30-30S48.5 2 32 2zm0 56C17.7 58 6 46.3 6 32S17.7 6 32 6s26 11.7 26 26-11.7 26-26 26z" fill="#ffffff" opacity="1" data-original="#000000"></path><path d="M44 30h-8.6c-.3-.6-.8-1.1-1.4-1.4V12c0-1.1-.9-2-2-2s-2 .9-2 2v16.6c-1.2.7-2 2-2 3.4 0 2.2 1.8 4 4 4 1.5 0 2.8-.8 3.4-2H44c1.1 0 2-.9 2-2s-.9-2-2-2z" fill="#ffffff" opacity="1" data-original="#000000"></path></g></svg>