<svg xmlns="http://www.w3.org/2000/svg" version="1.1" xmlns:xlink="http://www.w3.org/1999/xlink" width="512" height="512" x="0" y="0" viewBox="0 0 256 256" style="enable-background:new 0 0 512 512" xml:space="preserve" class=""><g><path d="M208.152 179.744v-29.971c-.01-9.97-8.09-18.05-18.061-18.062h-25.449a47.798 47.798 0 0 0 3.266-7.452l.901-.054c.092.005.184.008.278.008 8.04.006 14.56-6.506 14.566-14.544a14.555 14.555 0 0 0-5.43-11.351 79.267 79.267 0 0 0 1.513-7.533l10.076-.482a7.58 7.58 0 0 0 3.834-13.866l-19.421-13.022c-.787-3.25-1.936-7.983-3.157-12.98l-.001-.007-.743-3.037c-5.264-21.498-5.264-21.498-6.462-22.283-4.993-3.267-24.6-6.992-36.806-6.992S95.242 21.84 90.25 25.108c-1.198.785-1.198.785-6.462 22.283a7051.82 7051.82 0 0 0-3.901 16.024L60.466 76.437A7.581 7.581 0 0 0 64.3 90.303l10.076.482c.381 2.548.893 5.06 1.513 7.533-6.263 5.04-7.255 14.202-2.216 20.465a14.555 14.555 0 0 0 11.352 5.43c.124 0 .245-.006.358-.015.129-.003.258-.015.386-.034l.082-.013a47.849 47.849 0 0 0 3.303 7.56H64.02c-9.97.01-18.05 8.091-18.062 18.062v29.972C34.17 194.77 28.21 214.175 28.21 237.657a3 3 0 0 0 3 3h191.692a3 3 0 0 0 3-3c0-23.482-5.96-42.888-17.75-57.913zm-81.096-1.975c15.38 0 26.527-7.962 30.99-21.974 1.583.392 3.164.822 4.743 1.292-5.93 16.86-18.523 26.097-35.734 26.097s-29.803-9.237-35.733-26.098c1.577-.468 3.158-.899 4.743-1.292 4.463 14.013 15.61 21.974 30.99 21.974zm0-6c-7.41 0-20.1-2.334-25.107-17.289 2.458-.464 4.992-.837 7.567-1.157 6.324 4.044 12.63 6.335 17.376 6.335 4.76 0 11.09-2.305 17.433-6.369 2.67.326 5.293.711 7.837 1.192-5.006 14.954-17.697 17.288-25.106 17.288zm-.164-18.11c-11.114 0-37.26-18.04-37.26-42.734l-.08-19.413 35.629 1.707a38.945 38.945 0 0 0 3.75 0l35.599-1.705-.377 19.423c0 24.68-26.147 42.721-37.26 42.721zm42.596-35.463c.438-2.375.66-4.785.664-7.2l.19-9.812a8.556 8.556 0 0 1-.854 17.012zm3.232-22.638a14.427 14.427 0 0 0-2.26-.407l.075-3.925 3.073-.147c-.25 1.507-.546 3-.888 4.48zM88.355 53.976l35.5-2.976a39.657 39.657 0 0 1 6.64 0l35.256 2.955c.654 2.68 1.274 5.23 1.813 7.45l-37.235-3.12a39.474 39.474 0 0 0-6.546 0l-37.235 3.121a7484.04 7484.04 0 0 1 1.807-7.43zm6.048-24.311c4.87-2.237 21.168-5.55 32.653-5.55s27.781 3.313 32.653 5.55c.711 2.625 2.508 9.854 4.54 18.143l-33.254-2.787a45.996 45.996 0 0 0-7.64 0l-33.498 2.808c2.034-8.298 3.834-15.538 4.546-18.164zM64.588 84.31a1.492 1.492 0 0 1-1.419-1.144 1.52 1.52 0 0 1 .639-1.745l20.6-13.814 39.876-3.342a33.208 33.208 0 0 1 5.544 0l39.875 3.342 20.601 13.813a1.52 1.52 0 0 1 .638 1.745c-.157.66-.74 1.13-1.418 1.144l-60.88 2.916c-1.055.05-2.124.05-3.175 0zm15.915 6.769 3.048.146.016 3.93a14.43 14.43 0 0 0-2.176.403 72.606 72.606 0 0 1-.888-4.48zm-4.045 18.568a8.573 8.573 0 0 1 7.134-8.436l.04 9.726c.004 2.428.228 4.85.668 7.239a8.573 8.573 0 0 1-7.842-8.529zm-16.3 64.082v60.928h-25.91c.645-26.054 9.744-46.776 25.91-60.928zm23.074 60.928H66.16V155.46h17.073zm.493-85.196H65.666a5.514 5.514 0 0 0-5.507 5.507v10.883a78.264 78.264 0 0 0-2.792 2.194 77.647 77.647 0 0 0-5.408 4.935v-23.207c.008-6.659 5.403-12.055 12.062-12.062h28.922a61.616 61.616 0 0 0 9.79 10.568c-1.685.292-3.337.63-4.975.985-.073.01-.144.01-.216.026-.587.128-1.176.27-1.764.41-.599.14-1.197.288-1.796.44a110.745 110.745 0 0 0-5.798 1.609 5.499 5.499 0 0 0-4.459-2.289zm5.507 17.642c7.767 14.172 21.07 22.08 37.823 22.08s30.057-7.908 37.824-22.079v67.553H89.232zm98.72 67.554H170.88V155.46h17.074zm.494-85.196h-18.06a5.5 5.5 0 0 0-4.459 2.288 110.879 110.879 0 0 0-5.805-1.612c-.593-.15-1.185-.295-1.777-.434-.592-.14-1.184-.283-1.775-.412-.078-.017-.154-.017-.232-.027a121.581 121.581 0 0 0-5.23-1.029 61.61 61.61 0 0 0 9.744-10.524h29.238c6.659.008 12.054 5.404 12.062 12.062v23.206a79.486 79.486 0 0 0-5.408-4.934 79.02 79.02 0 0 0-2.791-2.194v-10.883a5.514 5.514 0 0 0-5.507-5.508zm5.507 85.196V173.73c16.167 14.152 25.266 34.874 25.911 60.927z" fill="#596b93" opacity="1" data-original="#000000" class=""></path></g></svg>